# Blender v2.81 (sub 16) OBJ File: 'Asteroidy.blend'
# www.blender.org
mtllib Asteroida 1.mtl
o Asteroida_1_Sphere
v -3.091121 -0.117318 1.499789
v -3.097014 -0.805666 0.944366
v -3.086390 -1.506079 -0.774975
v 0.492328 -1.949847 1.890642
v -1.710488 -2.742408 0.492769
v -1.574420 -2.688530 -1.130806
v -0.842815 -2.886040 0.362416
v -2.700207 -1.886183 -0.778904
v -1.361407 -1.515854 -1.469653
v -0.820039 -1.235102 -1.693288
v -1.677938 1.150159 2.311924
v -1.610978 2.690527 0.609908
v -2.838926 -0.797149 -2.036768
v -1.420076 -2.446397 -1.555950
v -0.283924 -2.741441 -1.783544
v -1.945089 -1.885864 -1.947597
v -0.854876 -1.187374 -2.619230
v -1.629749 1.312038 -2.056810
v 2.143595 -1.404788 1.893977
v 2.918162 -1.130409 1.200518
v 3.129009 -0.296816 1.223581
v 3.097003 -1.339893 0.474950
v 3.491808 0.034375 -1.099617
v 2.572914 1.817583 -0.800876
v 3.084057 1.397371 0.137990
v 0.393120 -2.771904 -1.989461
v 0.765396 -1.889252 -2.609984
v 0.648370 -0.543296 -2.802801
v 1.575721 1.759157 -1.936228
v -1.694712 -1.869131 1.657539
v -1.225880 -1.124114 2.230497
v -0.944941 -2.936162 -1.248646
v -2.166425 -1.519768 -1.256396
v -1.897808 -1.421890 -1.271589
v -1.901936 -1.584736 -1.254440
v -2.249536 -1.256606 1.865383
v -2.495007 -0.580279 2.014406
v -2.767072 -1.685310 0.856330
v -3.044388 -1.668221 -0.082347
v -1.296160 -2.717475 0.811715
v -3.161816 0.763931 0.244704
v -2.687032 1.793364 0.031459
v -1.810019 1.847157 1.951280
v -0.582070 3.128726 0.025745
v -3.028147 0.856840 1.215918
v -2.590199 0.649643 1.879784
v -2.589303 1.693996 1.265482
v -0.733940 3.036780 0.527704
v -1.889607 2.216987 1.428612
v -1.277697 2.914704 -0.143047
v -0.474526 3.036041 -0.481311
v -1.141304 2.520427 -0.815522
v -2.424550 -1.308889 -1.827341
v -2.318192 -0.776165 -2.239132
v -0.987549 1.690144 -2.147786
v 1.334527 -2.042002 1.718660
v 1.751158 -1.192009 2.165152
v 1.370508 -2.713488 0.616935
v 0.160208 -3.043413 -1.369612
v 1.433704 -2.807307 -0.722719
v 2.786674 -1.988715 -0.370749
v 3.241086 -1.059732 -1.415711
v 3.445478 -0.017235 -0.235766
v 2.609946 -0.460569 1.925013
v 2.214095 -2.188149 0.938092
v 1.249006 1.496305 2.199112
v 2.005958 1.656759 1.902612
v 1.484183 2.838232 0.314995
v 1.331334 2.764115 -0.372200
v 0.458367 3.121721 0.142255
v 2.996979 1.576025 -0.347876
v 2.503790 0.959743 1.818694
v 2.690524 1.596659 1.277432
v 3.137203 0.120554 -1.783529
v 2.449438 2.008819 1.013900
v 0.862529 2.690049 1.074766
v 0.308197 2.993331 -0.462714
v 1.520373 -1.154251 -2.654835
v 3.047704 -0.869455 -1.955960
v 1.229142 -2.453895 -2.275300
v 1.245294 -2.782064 -1.678963
v 1.797282 1.072268 -2.299688
v 0.022370 0.127427 2.629000
v 0.335833 -2.783295 0.858815
v 0.238208 0.760737 2.601621
v 0.144419 2.503696 1.878062
v 0.190864 3.131574 0.860561
v 0.155010 2.932656 1.412627
v 0.531710 2.419770 -1.137886
v 0.689907 1.205012 -2.552372
v -3.039222 -1.202230 -1.545885
v -2.322649 -1.886024 -1.363250
v -0.599791 -0.257971 -2.685211
v 2.875881 -1.641341 -1.617240
v 3.374832 -0.242464 -1.544049
v 1.873146 1.692700 -1.836719
v -3.227171 0.030514 1.132778
v -0.350448 0.555783 2.636560
v -0.421380 0.496490 -2.755568
v 0.151687 0.636054 2.694497
v 2.097302 0.348487 2.247688
v 1.358942 0.447729 -2.696570
v -0.513342 1.975580 -1.916058
v -3.044341 0.079517 -1.291450
v -2.506045 0.574582 -1.752197
v -2.101755 -0.234067 -2.394115
v -0.974180 -2.029652 -1.646347
v -1.879457 2.238192 -0.652193
vn -0.9940 -0.1035 0.0360
vn -0.1081 -0.5624 0.8198
vn -0.2850 -0.3037 0.9091
vn -0.1572 -0.9867 0.0407
vn -0.3587 -0.0888 -0.9292
vn -0.6632 -0.7258 0.1827
vn -0.0994 -0.7256 0.6809
vn -0.5072 -0.6862 0.5214
vn -0.9686 0.2220 0.1121
vn -0.7811 0.2207 0.5841
vn -0.6512 0.3852 0.6539
vn -0.6712 0.7327 0.1122
vn -0.8979 0.1757 0.4036
vn -0.3046 0.8658 0.3971
vn -0.6215 0.7420 -0.2514
vn -0.4029 0.7515 -0.5224
vn -0.3393 0.8320 0.4388
vn -0.4147 -0.6115 -0.6738
vn 0.2562 -0.5450 0.7984
vn 0.0921 -0.9898 0.1083
vn 0.7337 -0.6418 0.2232
vn 0.3114 -0.8069 0.5020
vn 0.9236 -0.2418 0.2975
vn 0.6536 -0.5611 0.5080
vn 0.3031 0.2628 0.9160
vn 0.2194 0.5063 0.8340
vn 0.2885 0.9430 -0.1659
vn 0.2528 0.9641 0.0809
vn 0.9438 0.3268 -0.0490
vn 0.4953 0.2537 0.8308
vn 0.7588 0.6435 0.1006
vn 0.5979 0.7895 -0.1387
vn 0.3551 0.7948 0.4921
vn 0.9351 0.2084 0.2865
vn 0.5462 0.8111 -0.2090
vn 0.3778 0.8005 0.4653
vn 0.4997 0.6312 0.5931
vn 0.5405 0.6543 0.5289
vn 0.0729 -0.1352 -0.9881
vn -0.1406 -0.5960 -0.7906
vn 0.5116 -0.4382 -0.7391
vn -0.0737 -0.5526 -0.8302
vn 0.3732 0.5251 -0.7648
vn 0.0123 -0.3586 0.9334
vn 0.0136 -0.3157 0.9488
vn -0.0925 -0.9950 0.0368
vn 0.0850 0.3859 0.9186
vn -0.1142 0.4394 0.8910
vn -0.1898 0.6678 0.7197
vn -0.2173 0.7202 0.6588
vn -0.1089 0.6360 -0.7639
vn -0.3921 -0.7309 -0.5586
vn 0.7250 0.5048 0.4686
vn 0.2848 -0.8502 -0.4428
vn 0.0933 -0.8090 -0.5804
vn 0.2152 -0.9742 -0.0681
vn 0.8565 -0.5098 -0.0808
vn -0.2291 0.8140 -0.5337
vn 0.3062 0.8983 -0.3151
vn -0.9880 -0.1542 0.0016
vn -0.1571 -0.1539 0.9755
vn -0.2563 -0.0450 0.9656
vn 0.2088 -0.0990 0.9729
vn 0.2626 0.4526 0.8522
vn 0.9536 0.1799 0.2413
vn 0.3699 -0.1324 0.9196
vn 0.7877 0.1043 0.6072
vn 0.1608 -0.0095 -0.9869
vn 0.4768 0.2081 -0.8540
vn 0.4699 0.1101 -0.8758
vn 0.7448 0.0486 -0.6655
vn 0.8631 0.2942 -0.4104
vn 0.0383 0.2195 -0.9749
vn -0.1368 -0.8644 -0.4838
vn -0.0351 0.8875 -0.4594
vn -0.0033 0.6336 -0.7736
vn 0.0649 0.6937 -0.7173
vn -0.1908 -0.0463 -0.9805
vn -0.1895 -0.1992 -0.9615
vn -0.2200 -0.6701 -0.7089
vn -0.5439 -0.1652 -0.8228
vn -0.3912 0.0215 -0.9200
vn -0.1969 -0.0020 -0.9804
vn -0.4955 0.8075 -0.3200
vn -0.9971 0.0684 -0.0340
vn -0.2341 -0.4958 0.8363
vn -0.3754 -0.9248 -0.0622
vn -0.3549 -0.0590 -0.9331
vn -0.7505 -0.3811 0.5400
vn -0.8780 -0.2960 0.3762
vn -0.6968 -0.7066 -0.1232
vn -0.6012 -0.7962 -0.0681
vn -0.8958 -0.3618 0.2581
vn -0.3845 -0.7361 0.5571
vn -0.0705 -0.9553 0.2873
vn -0.8908 0.4443 0.0948
vn -0.5204 -0.6566 0.5459
vn -0.3389 0.9350 0.1045
vn -0.9006 0.3672 -0.2325
vn -0.2368 0.9456 -0.2231
vn -0.7337 0.5240 -0.4325
vn -0.5390 0.3043 0.7854
vn -0.7293 0.3474 0.5895
vn 0.9713 -0.2345 0.0389
vn -0.1132 0.8029 0.5853
vn -0.6254 0.7790 -0.0449
vn -0.3394 0.7798 -0.5260
vn -0.5844 0.6178 0.5261
vn -0.6165 0.7541 0.2264
vn -0.4350 -0.1775 -0.8828
vn 0.1189 -0.5068 0.8538
vn 0.1444 -0.9866 0.0759
vn 0.9001 -0.4357 0.0040
vn 0.7444 -0.3017 0.5956
vn 0.9707 -0.1590 0.1800
vn 0.1156 -0.8148 0.5682
vn 0.4538 -0.2522 0.8547
vn 0.5007 -0.8614 0.0858
vn 0.4137 -0.6890 0.5951
vn 0.7849 0.4718 -0.4016
vn 0.7380 -0.5777 0.3487
vn 0.2273 0.2082 0.9513
vn 0.2329 0.9380 -0.2569
vn 0.8442 0.1812 0.5044
vn 0.6421 0.3783 0.6667
vn 0.1674 0.8219 -0.5444
vn 0.6448 0.7642 0.0164
vn 0.3573 0.7875 0.5021
vn 0.3656 0.8107 0.4572
vn 0.4472 0.7827 -0.4330
vn -0.0633 0.3761 0.9244
vn 0.4431 0.8338 0.3292
vn 0.7973 0.5778 0.1743
vn 0.4430 -0.3414 -0.8290
vn 0.2615 -0.3241 -0.9092
vn 0.1642 -0.8623 -0.4790
vn 0.2489 0.5145 -0.8206
vn 0.0390 -0.9928 0.1128
vn -0.0494 -0.7733 0.6321
vn 0.0413 0.9797 -0.1963
vn -0.0555 0.9973 0.0480
vn 0.9172 -0.3977 0.0222
vn 0.0571 0.7701 -0.6353
vn -0.2097 0.9241 0.3194
vn -0.3107 -0.7029 -0.6398
vn -0.5379 -0.7103 -0.4539
vn 0.5271 -0.5831 -0.6182
vn -0.1592 -0.6854 -0.7105
vn -0.6118 -0.6850 -0.3955
vn -0.6198 -0.7015 -0.3516
vn -0.5864 -0.7158 -0.3791
vn -0.0162 0.0288 -0.9995
vn 0.1202 -0.9251 -0.3601
vn 0.8253 -0.3706 -0.4260
vn 0.8953 -0.2084 -0.3938
vn 0.9729 -0.1817 -0.1429
vn 0.5376 -0.8335 -0.1279
vn 0.5682 -0.8023 -0.1829
vn 0.5309 -0.7363 -0.4195
vn -0.4824 0.6894 -0.5403
vn -0.4031 0.7551 -0.5171
vn 0.5780 0.4415 -0.6863
vn 0.6746 0.5249 -0.5190
vn -0.9972 -0.0023 -0.0752
vn -0.2168 -0.1211 0.9687
vn -0.4549 0.0620 0.8884
vn -0.6374 0.0349 0.7697
vn 0.1391 -0.1612 0.9771
vn 0.9708 0.2306 0.0658
vn 0.6430 0.1048 0.7587
vn 0.2490 0.3889 -0.8870
vn 0.4133 0.0179 -0.9104
vn -0.0978 -0.1026 0.9899
vn -0.0985 0.4140 -0.9049
vn -0.3181 0.2994 -0.8995
vn -0.1762 -0.8756 -0.4497
vn 0.0790 0.8163 -0.5721
vn -0.6539 0.5730 -0.4940
vn -0.7651 0.3035 -0.5678
vn -0.9410 0.0623 -0.3326
vn -0.9971 0.0109 -0.0750
vn -0.4741 -0.1164 -0.8728
vn -0.5914 0.2989 -0.7490
vn -0.5480 0.3346 -0.7666
vn -0.2830 -0.5506 -0.7854
vn -0.3552 -0.1231 -0.9267
vn -0.2759 -0.4722 -0.8372
vn 0.3049 0.0689 -0.9499
vn -0.3701 0.8603 -0.3507
usemtl asteroidowy_materiał
s off
f 39//1 2//1 3//1
f 4//2 31//2 30//2
f 31//3 37//3 36//3
f 32//4 7//4 5//4
f 34//5 9//5 35//5
f 38//6 39//6 5//6
f 30//7 40//7 4//7
f 38//8 5//8 30//8
f 45//9 41//9 97//9
f 46//10 45//10 1//10
f 43//11 47//11 46//11
f 12//12 42//12 47//12
f 1//13 45//13 97//13
f 48//14 12//14 49//14
f 50//15 108//15 42//15
f 50//16 52//16 108//16
f 88//17 48//17 43//17
f 53//18 91//18 13//18
f 19//19 57//19 56//19
f 59//20 58//20 84//20
f 61//21 22//21 65//21
f 58//22 65//22 56//22
f 21//23 20//23 22//23
f 65//24 20//24 19//24
f 101//25 67//25 66//25
f 66//26 67//26 86//26
f 68//27 69//27 70//27
f 68//28 70//28 87//28
f 71//29 25//29 23//29
f 101//30 72//30 67//30
f 25//31 71//31 75//31
f 24//32 68//32 71//32
f 67//33 75//33 86//33
f 25//34 73//34 21//34
f 69//35 68//35 24//35
f 76//36 68//36 87//36
f 76//37 88//37 86//37
f 73//38 75//38 67//38
f 78//39 27//39 28//39
f 35//40 8//40 33//40 34//40
f 79//41 94//41 80//41
f 27//42 80//42 26//42
f 96//43 82//43 29//43
f 4//44 57//44 31//44
f 57//45 83//45 31//45
f 32//46 59//46 7//46
f 85//47 66//47 86//47
f 86//48 43//48 11//48
f 85//49 98//49 100//49
f 86//50 88//50 43//50
f 51//51 89//51 52//51
f 14//52 32//52 6//52
f 16//53 53//53 92//53
f 53//54 34//54 33//54
f 54//55 93//55 34//55
f 59//56 81//56 60//56
f 94//57 62//57 61//57
f 103//58 55//58 52//58
f 96//59 29//59 24//59
f 2//60 97//60 91//60
f 83//61 98//61 31//61
f 98//62 11//62 37//62
f 57//63 101//63 100//63
f 100//64 101//64 85//64
f 63//65 25//65 21//65
f 64//66 101//66 57//66
f 21//67 72//67 64//67
f 102//68 78//68 28//68
f 74//69 102//69 82//69
f 74//70 79//70 102//70
f 74//71 95//71 79//71
f 74//72 23//72 95//72
f 90//73 102//73 99//73
f 15//74 59//74 32//74
f 89//75 103//75 52//75
f 103//76 90//76 55//76
f 29//77 90//77 103//77
f 93//78 106//78 99//78
f 54//79 106//79 93//79
f 10//80 93//80 28//80
f 28//81 27//81 10//81
f 10//82 107//82 9//82
f 14//83 107//83 15//83
f 35//84 92//84 8//84
f 2//85 91//85 3//85
f 36//86 30//86 31//86
f 6//87 32//87 5//87
f 34//88 10//88 9//88
f 37//89 1//89 38//89 36//89
f 97//90 2//90 38//90 1//90
f 39//91 3//91 8//91
f 6//92 5//92 39//92 8//92
f 38//93 2//93 39//93
f 30//94 5//94 40//94
f 84//95 40//95 5//95 7//95
f 41//96 45//96 47//96 42//96
f 36//97 38//97 30//97
f 50//98 12//98 48//98 44//98
f 41//99 42//99 104//99
f 44//100 51//100 50//100
f 105//101 104//101 42//101 108//101
f 11//102 43//102 46//102
f 46//103 47//103 45//103
f 22//104 62//104 23//104 63//104
f 43//105 48//105 49//105
f 12//106 50//106 42//106
f 50//107 51//107 52//107
f 43//108 49//108 47//108
f 49//109 12//109 47//109
f 53//110 16//110 91//110
f 4//111 56//111 57//111
f 59//112 60//112 58//112
f 62//113 22//113 61//113
f 64//114 19//114 20//114 21//114
f 63//115 21//115 22//115
f 56//116 4//116 84//116 58//116
f 19//117 64//117 57//117
f 58//118 60//118 61//118 65//118
f 56//119 65//119 19//119
f 74//120 24//120 71//120 23//120
f 65//121 22//121 20//121
f 85//122 101//122 66//122
f 70//123 69//123 77//123
f 21//124 73//124 72//124
f 67//125 72//125 73//125
f 89//126 77//126 69//126 29//126
f 75//127 71//127 68//127
f 86//128 75//128 76//128
f 76//129 75//129 68//129
f 69//130 24//130 29//130
f 11//131 98//131 85//131 86//131
f 76//132 87//132 88//132
f 73//133 25//133 75//133
f 78//134 79//134 80//134
f 27//135 78//135 80//135
f 26//136 80//136 81//136
f 29//137 82//137 90//137
f 7//138 59//138 84//138
f 4//139 40//139 84//139
f 51//140 44//140 70//140 77//140
f 44//141 48//141 87//141 70//141
f 33//142 8//142 92//142 53//142
f 51//143 77//143 89//143
f 87//144 48//144 88//144
f 14//145 15//145 32//145
f 14//146 6//146 92//146 16//146
f 34//147 53//147 54//147
f 34//148 93//148 10//148
f 6//149 8//149 92//149
f 8//150 3//150 91//150 92//150
f 91//151 16//151 92//151
f 28//152 93//152 99//152 102//152
f 59//153 26//153 81//153
f 94//154 79//154 62//154
f 79//155 95//155 62//155
f 62//156 95//156 23//156
f 81//157 61//157 60//157
f 61//158 81//158 94//158
f 81//159 80//159 94//159
f 55//160 18//160 108//160
f 52//161 55//161 108//161
f 74//162 82//162 96//162
f 74//163 96//163 24//163
f 97//164 41//164 104//164
f 31//165 98//165 37//165
f 37//166 11//166 46//166
f 37//167 46//167 1//167
f 83//168 57//168 100//168
f 23//169 25//169 63//169
f 64//170 72//170 101//170
f 90//171 82//171 102//171
f 102//172 79//172 78//172
f 83//173 100//173 98//173
f 55//174 90//174 99//174
f 18//175 55//175 99//175 106//175
f 59//176 15//176 26//176
f 89//177 29//177 103//177
f 18//178 105//178 108//178
f 105//179 13//179 104//179
f 13//180 91//180 104//180
f 91//181 97//181 104//181
f 107//182 10//182 27//182 15//182
f 106//183 13//183 105//183
f 18//184 106//184 105//184
f 53//185 13//185 54//185
f 13//186 106//186 54//186
f 27//187 26//187 15//187
f 14//188 16//188 9//188 107//188
f 35//189 9//189 16//189 92//189
